<?xml version="1.0" encoding="UTF-8"?>
<svg xmlns="http://www.w3.org/2000/svg" xmlns:xlink="http://www.w3.org/1999/xlink" viewBox="0 0 30 30" width="30px" height="30px">
<g id="surface2128815">
<path style=" stroke:none;fill-rule:nonzero;fill:rgb(36.078432%,40.392157%,43.137255%);fill-opacity:1;" d="M 12.601562 1.800781 C 6.972656 1.800781 2.398438 6.371094 2.398438 12 C 2.398438 17.628906 6.972656 22.199219 12.601562 22.199219 C 14.828125 22.199219 16.882812 21.484375 18.5625 20.269531 L 26.457031 28.144531 L 28.144531 26.457031 L 20.34375 18.636719 C 21.875 16.851562 22.800781 14.535156 22.800781 12 C 22.800781 6.371094 18.226562 1.800781 12.601562 1.800781 Z M 12.601562 3 C 17.578125 3 21.601562 7.023438 21.601562 12 C 21.601562 16.976562 17.578125 21 12.601562 21 C 7.621094 21 3.601562 16.976562 3.601562 12 C 3.601562 7.023438 7.621094 3 12.601562 3 Z M 12.601562 3 "/>
</g>
</svg>
